<svg width="23" height="22" viewBox="0 0 23 22" fill="none" xmlns="http://www.w3.org/2000/svg">
<g clip-path="url(#clip0_187_53)">
<path fill-rule="evenodd" clip-rule="evenodd" d="M16.7149 12.2832C16.7149 12.6547 16.4099 12.9547 16.0347 12.9547H6.96532C6.58894 12.9547 6.28625 12.6547 6.28625 12.2832C6.28625 11.9116 6.58894 11.6116 6.96532 11.6116H16.0347C16.4099 11.6116 16.7149 11.9116 16.7149 12.2832ZM16.7149 7.24678C16.7149 7.61835 16.4099 7.9183 16.0347 7.9183H6.96532C6.58894 7.9183 6.28625 7.61835 6.28625 7.24678C6.28625 6.87521 6.58894 6.57527 6.96532 6.57527H16.0347C16.4099 6.57527 16.7149 6.87521 16.7149 7.24678ZM21.1396 17.7806L18.3757 20.3973L15.401 17.5825C15.1368 17.3341 14.7219 17.333 14.4589 17.5837L11.4921 20.3973L8.52412 17.5837C8.2611 17.333 7.84505 17.333 7.5809 17.5837L4.61409 20.3973L1.8604 17.7818V4.0291C1.8604 2.54841 3.0825 1.34303 4.58121 1.34303H18.4188C19.9186 1.34303 21.1396 2.54841 21.1396 4.0291V17.7806ZM18.4188 0H4.58121C2.33088 0 0.5 1.8075 0.5 4.0291V17.9978C0.5 18.0112 0.506802 18.0235 0.507936 18.0369C0.498866 18.2238 0.562352 18.4119 0.708595 18.5518L4.14248 21.812C4.40663 22.0616 4.82268 22.0627 5.0857 21.812L8.05251 18.9983L11.0205 21.812C11.2835 22.0627 11.6984 22.0627 11.9625 21.812L14.9305 18.9983L17.9052 21.8131C18.0367 21.9373 18.2057 22 18.3757 22C18.5446 22 18.7147 21.9373 18.8462 21.8131L22.2903 18.5529C22.4376 18.413 22.5011 18.2238 22.4921 18.0369C22.4932 18.0224 22.5 18.0112 22.5 17.9978V4.0291C22.5 1.8075 20.6691 0 18.4188 0Z" fill="#FF5500"/>
</g>
<defs>
<clipPath id="clip0_187_53">
<rect width="22" height="22" fill="white" transform="translate(0.5)"/>
</clipPath>
</defs>
</svg>
