<svg width="33" height="32" viewBox="0 0 33 32" fill="none" xmlns="http://www.w3.org/2000/svg">
<path fill-rule="evenodd" clip-rule="evenodd" d="M15.981 15.1013C16.4771 14.8149 17.1122 14.9851 17.3986 15.4811C17.685 15.9772 17.5149 16.6123 17.0188 16.8987C16.5227 17.1851 15.8876 17.015 15.6012 16.5189C15.3148 16.0228 15.485 15.3877 15.981 15.1013ZM18.2272 18.9918L10.5163 19.4546L14.7726 13.0082L22.4835 12.5454L18.2272 18.9918ZM23.6527 11.2269L14.3876 11.783C14.1907 11.7948 14.0127 11.8976 13.9041 12.0622L8.78989 19.8079C8.66038 20.0049 8.65327 20.2583 8.77105 20.4623C8.88884 20.6663 9.1118 20.7868 9.34716 20.7731L18.6123 20.217C18.7104 20.2106 18.804 20.1818 18.8867 20.134C18.9694 20.0863 19.0412 20.0197 19.0958 19.9379L24.2099 12.1921C24.3395 11.9951 24.3466 11.7417 24.2288 11.5377C24.111 11.3337 23.888 11.2132 23.6527 11.2269ZM21.3773 24.4478C16.7184 27.1376 10.7414 25.5354 8.05209 20.8774C5.3628 16.2194 6.96367 10.242 11.6226 7.55215C16.2814 4.86234 22.2585 6.46463 24.9477 11.1226C27.637 15.7806 26.0362 21.758 21.3773 24.4478ZM10.9999 6.4737C5.74699 9.50649 3.94086 16.2471 6.97364 21.5C10.0064 26.7529 16.747 28.5591 21.9999 25.5263C27.2528 22.4935 29.059 15.7529 26.0262 10.5C22.9934 5.24705 16.2528 3.44092 10.9999 6.4737Z" fill="#FF5500"/>
</svg>
