<svg width="20" height="22" viewBox="0 0 20 22" fill="none" xmlns="http://www.w3.org/2000/svg">
<g clip-path="url(#clip0_187_51)">
<path fill-rule="evenodd" clip-rule="evenodd" d="M9.27515 20.8036V13.4372C9.27515 12.8219 8.76702 12.3207 8.14317 12.3207L1.75313 12.4037L10.7248 1.19586V8.56224C10.7248 9.17757 11.233 9.67877 11.8568 9.67877L18.2469 9.59575L9.27515 20.8036ZM19.3789 9.11013C19.1758 8.69299 18.7571 8.43357 18.2879 8.43357H11.9873V1.19586C11.9873 0.681174 11.6696 0.239128 11.1772 0.0689516C10.6859 -0.101226 10.1567 0.0502736 9.83062 0.449774L0.766324 11.6265C0.472807 11.9876 0.418101 12.4722 0.621144 12.8893C0.824186 13.3064 1.24289 13.5659 1.7121 13.5659H8.01271V20.8036C8.01271 21.3183 8.33043 21.7603 8.82278 21.9305C8.95744 21.9772 9.09525 22 9.23097 22C9.58866 22 9.93267 21.8412 10.1694 21.5497L19.2337 10.374C19.5272 10.0119 19.5819 9.52831 19.3789 9.11013Z" fill="#FF5500"/>
</g>
<defs>
<clipPath id="clip0_187_51">
<rect width="19" height="22" fill="white" transform="translate(0.5)"/>
</clipPath>
</defs>
</svg>
