<svg width="26" height="18" viewBox="0 0 26 18" fill="none" xmlns="http://www.w3.org/2000/svg">
<g clip-path="url(#clip0_187_49)">
<path fill-rule="evenodd" clip-rule="evenodd" d="M21.3058 11.3855C21.3058 12.5827 20.3412 13.5542 19.1504 13.5542C17.9607 13.5542 16.9951 12.5827 16.9951 11.3855C16.9951 10.1884 17.9607 9.21687 19.1504 9.21687C20.3412 9.21687 21.3058 10.1884 21.3058 11.3855ZM9.09145 11.3855C9.09145 11.7455 8.80156 12.0361 8.44485 12.0361H7.3133V13.1747C7.3133 13.5336 7.02448 13.8253 6.6667 13.8253C6.30891 13.8253 6.0201 13.5336 6.0201 13.1747V12.0361H4.88854C4.53076 12.0361 4.24194 11.7455 4.24194 11.3855C4.24194 11.0255 4.53076 10.7349 4.88854 10.7349H6.0201V9.59639C6.0201 9.23639 6.30891 8.94578 6.6667 8.94578C7.02448 8.94578 7.3133 9.23639 7.3133 9.59639V10.7349H8.44485C8.80156 10.7349 9.09145 11.0255 9.09145 11.3855ZM24.1066 12.4493C23.7111 14.5084 22.0655 16.1718 20.0104 16.5882C18.1536 16.9655 16.286 16.3551 15.0197 14.9563C14.6447 14.542 14.1511 14.3133 13.6306 14.3133H12.3697C11.8503 14.3133 11.3578 14.541 10.9838 14.9552C9.98161 16.0634 8.55585 16.6988 7.07406 16.6988C5.59011 16.6988 4.16435 16.0634 3.16535 14.9563C2.15126 13.834 1.67385 12.3788 1.81826 10.8586C2.07475 8.17482 4.49627 6.07229 7.33162 6.07229H18.9284C20.5094 6.07229 21.9944 6.77711 23.0031 8.00675C24.0107 9.2353 24.4127 10.8542 24.1066 12.4493ZM23.9999 7.1794C22.7455 5.64831 20.8973 4.77108 18.9284 4.77108H13.6478V0.650602C13.6478 0.290602 13.3579 0 13.0012 0C12.6435 0 12.3546 0.290602 12.3546 0.650602V4.77108H7.33162C3.83781 4.77108 0.850514 7.38976 0.531524 10.7339C0.351553 12.6239 0.946426 14.4347 2.2073 15.8313C3.45201 17.2095 5.22585 18 7.07406 18C8.91903 18 10.6929 17.2095 11.9408 15.8313C12.013 15.75 12.1671 15.6145 12.3697 15.6145H13.6306C13.8354 15.6145 13.9884 15.75 14.0627 15.8324C15.3322 17.2345 17.0835 18 18.9241 18C19.3681 18 19.8175 17.9555 20.2669 17.8645C22.8296 17.344 24.8825 15.2675 25.3761 12.6954C25.7555 10.7187 25.2543 8.70723 23.9999 7.1794Z" fill="#FF5500"/>
</g>
<defs>
<clipPath id="clip0_187_49">
<rect width="25" height="18" fill="white" transform="translate(0.5)"/>
</clipPath>
</defs>
</svg>
