<svg width="20" height="22" viewBox="0 0 20 22" fill="none" xmlns="http://www.w3.org/2000/svg">
<g clip-path="url(#clip0_187_55)">
<path fill-rule="evenodd" clip-rule="evenodd" d="M18.2359 13.1041H10.6321V7.58517L12.8791 9.79773C13.0023 9.92019 13.1635 9.98038 13.3257 9.98038C13.4869 9.98038 13.6491 9.92019 13.7724 9.79773C14.02 9.55592 14.02 9.16156 13.7724 8.91872L11.5338 6.71239H15.7076C17.1013 6.71239 18.2359 7.83009 18.2359 9.20308V13.1041ZM18.2359 18.2484C18.2359 19.6214 17.1013 20.7391 15.7076 20.7391H10.6321V14.3484H18.2359V18.2484ZM10.6321 3.35308C10.6321 2.18973 11.5918 1.2443 12.7716 1.2443C13.9504 1.2443 14.9101 2.18973 14.9101 3.35308C14.9101 4.51436 13.9504 5.45979 12.7716 5.45979H10.6321V3.35308ZM9.36793 5.45979H7.22943C6.04957 5.45979 5.08988 4.51436 5.08988 3.35308C5.08988 2.18973 6.04957 1.2443 7.22943 1.2443C8.40824 1.2443 9.36793 2.18973 9.36793 3.35308V5.45979ZM9.36793 13.1041H1.76414V9.20308C1.76414 7.83009 2.8987 6.71239 4.29242 6.71239H8.46723L6.2276 8.91872C5.98109 9.16156 5.98109 9.55592 6.2276 9.79773C6.47411 10.0416 6.87442 10.0416 7.12198 9.79773L9.36793 7.58517V13.1041ZM9.36793 20.7391H4.29242C2.8987 20.7391 1.76414 19.6214 1.76414 18.2484V14.3484H9.36793V20.7391ZM15.7076 5.46809H15.4095C15.8877 4.89004 16.1743 4.15425 16.1743 3.35308C16.1743 1.50375 14.6478 0 12.7716 0C11.6297 0 10.6184 0.556253 10 1.40827C9.38268 0.556253 8.37032 0 7.22943 0C5.35218 0 3.82574 1.50375 3.82574 3.35308C3.82574 4.15425 4.11228 4.89004 4.59054 5.46809H4.29242C2.20132 5.46809 0.5 7.14307 0.5 9.20308V18.2484C0.5 20.3084 2.20132 21.9844 4.29242 21.9844H9.85884C9.90414 21.9938 9.95154 22 10 22C10.0495 22 10.0959 21.9938 10.1412 21.9844H15.7076C17.7987 21.9844 19.5 20.3084 19.5 18.2484V9.20308C19.5 7.14307 17.7987 5.46809 15.7076 5.46809Z" fill="#FF5500"/>
</g>
<defs>
<clipPath id="clip0_187_55">
<rect width="19" height="22" fill="white" transform="translate(0.5)"/>
</clipPath>
</defs>
</svg>
